<svg xmlns="http://www.w3.org/2000/svg" viewBox="0 0 360 360"><defs><radialGradient id="o" cx="36%" cy="28%"><stop offset="0" stop-color="#55eaff"/><stop offset=".34" stop-color="#0878d7"/><stop offset=".72" stop-color="#063b91"/><stop offset="1" stop-color="#01183f"/></radialGradient><linearGradient id="l" x1="0" y1="0" x2="1" y2="1"><stop stop-color="#6cf49d"/><stop offset=".5" stop-color="#23b968"/><stop offset="1" stop-color="#087044"/></linearGradient><radialGradient id="shade"><stop offset=".55" stop-color="#000" stop-opacity="0"/><stop offset="1" stop-color="#000" stop-opacity=".72"/></radialGradient><clipPath id="c"><circle cx="180" cy="180" r="168"/></clipPath><filter id="g"><feGaussianBlur stdDeviation="7"/></filter></defs><circle cx="180" cy="180" r="171" fill="#20cfff" opacity=".45" filter="url(#g)"/><circle cx="180" cy="180" r="168" fill="url(#o)"/><g clip-path="url(#c)"><g fill="url(#l)" stroke="#8affba" stroke-opacity=".35" stroke-width="2"><g id="world"><path d="M18 84l36-23 35 5 21 25-13 20 14 18-18 16-31-5-12 24-25-10-8-29 15-18z"/><path d="M118 44l31-13 38 12 11 20-21 13-8 25-31-2-18-18z"/><path d="M157 116l31-18 45 8 29 30-13 24-35 4-14 27-20-9-4-28-28-13z"/><path d="M210 192l30-17 31 11 15 28-20 16-7 36-28 21-19-18 7-29-18-21z"/><path d="M283 73l26-9 28 17 4 26-23 10-12-16-25-6z"/><path d="M70 205l24-15 27 13 9 26-18 21-7 39-24 19-13-25 8-32-18-20z"/></g><use href="#world" x="360"/></g><animateTransform attributeName="transform" type="translate" from="0 0" to="-360 0" dur="20s" repeatCount="indefinite"/></g><g clip-path="url(#c)" fill="none" stroke="#fff" stroke-opacity=".28" stroke-width="8" stroke-linecap="round"><path d="M52 116c65-35 114-16 163-27 42-9 68-28 101-17"/><path d="M35 226c54-24 96-12 138-1 55 15 98 4 145-25"/></g><circle cx="180" cy="180" r="168" fill="url(#shade)"/><ellipse cx="125" cy="93" rx="72" ry="38" fill="#fff" opacity=".13" transform="rotate(-24 125 93)"/><circle cx="180" cy="180" r="168" fill="none" stroke="#7cecff" stroke-width="3" stroke-opacity=".7"/></svg>